Coordinates
version=1
nRows=43
nColumns=12
inDegrees=yes

Units are S.I. units (second, meters, Newtons, ...)
Angles are in degrees

endheader
time	SC_y	SC_z	SC_x	AC_y	AC_z	AC_x	GH_y	GH_z	GH_yy	EL_x	PS_y
       0.0              -19.72          14.93          80.29          56.42           3.34         -7.317         -135.9          81.66         -165.0          111.7          127.8
   0.00227              -19.72          14.93          80.29          56.42           3.34         -7.314         -135.9          81.64         -165.0          111.7          127.8
  0.004541              -19.72          14.93          80.28          56.41          3.341         -7.312         -135.8          81.63         -164.9          111.7          127.8
  0.006811              -19.72          14.94          80.28          56.41          3.342         -7.309         -135.8          81.61         -164.9          111.7          127.8
  0.009082              -19.72          14.94          80.27          56.41          3.343         -7.306         -135.7           81.6         -164.8          111.7          127.8
   0.01135              -19.72          14.94          80.27          56.41          3.344         -7.303         -135.7          81.58         -164.8          111.7          127.8
   0.01362              -19.72          14.94          80.26           56.4          3.345           -7.3         -135.6          81.56         -164.7          111.7          127.8
   0.01589              -19.72          14.95          80.25           56.4          3.346         -7.296         -135.6          81.54         -164.7          111.7          127.8
   0.01816              -19.71          14.95          80.24           56.4          3.347         -7.292         -135.5          81.51         -164.6          111.7          127.8
   0.02043              -19.71          14.95          80.23           56.4          3.348         -7.288         -135.5          81.49         -164.6          111.7          127.8
    0.0227              -19.71          14.95          80.23          56.39          3.349         -7.284         -135.4          81.46         -164.5          111.7          127.8
   0.02497              -19.71          14.96          80.22          56.39           3.35         -7.279         -135.3          81.44         -164.5          111.7          127.8
   0.02725              -19.71          14.96          80.21          56.38          3.352         -7.274         -135.2          81.41         -164.4          111.7          127.8
   0.02952              -19.71          14.96          80.19          56.38          3.353         -7.269         -135.1          81.37         -164.3          111.7          127.7
   0.03179              -19.71          14.97          80.18          56.37          3.355         -7.263         -135.1          81.34         -164.2          111.7          127.7
   0.03406               -19.7          14.97          80.17          56.37          3.357         -7.256         -135.0           81.3         -164.1          111.7          127.7
   0.03633               -19.7          14.98          80.15          56.36          3.359         -7.249         -134.8          81.26         -164.0          111.7          127.7
    0.0386               -19.7          14.98          80.14          56.36          3.361         -7.242         -134.7          81.21         -163.9          111.7          127.7
   0.04087               -19.7          14.99          80.12          56.35          3.364         -7.234         -134.6          81.16         -163.8          111.7          127.7
   0.04314               -19.7          14.99           80.1          56.34          3.366         -7.225         -134.4          81.11         -163.7          111.7          127.7
   0.04541              -19.69           15.0          80.08          56.33          3.369         -7.215         -134.3          81.05         -163.5          111.7          127.7
   0.04768              -19.69          15.01          80.06          56.33          3.372         -7.204         -134.1          80.98         -163.4          111.7          127.7
   0.04995              -19.69          15.02          80.03          56.32          3.376         -7.192         -133.9          80.91         -163.2          111.7          127.7
   0.05222              -19.68          15.02          80.01          56.31           3.38         -7.178         -133.7          80.83         -163.0          111.8          127.6
   0.05449              -19.68          15.03          79.97          56.29          3.384         -7.163         -133.5          80.74         -162.8          111.8          127.6
   0.05676              -19.67          15.05          79.94          56.28          3.389         -7.147         -133.2          80.64         -162.6          111.8          127.6
   0.05903              -19.67          15.06           79.9          56.26          3.394         -7.128         -132.9          80.53         -162.3          111.8          127.6
    0.0613              -19.66          15.07          79.86          56.25            3.4         -7.107         -132.5          80.41         -162.0          111.8          127.5
   0.06357              -19.66          15.09          79.81          56.23          3.407         -7.083         -132.2          80.27         -161.7          111.8          127.5
   0.06584              -19.65          15.11          79.75          56.21          3.415         -7.056         -131.7           80.1         -161.3          111.8          127.5
   0.06811              -19.64          15.13          79.69          56.18          3.424         -7.026         -131.2          79.92         -160.9          111.9          127.4
   0.07038              -19.63          15.15          79.62          56.15          3.434         -6.991         -130.7          79.71         -160.3          111.9          127.4
   0.07265              -19.62          15.18          79.53          56.12          3.446          -6.95         -130.0          79.47         -159.8          111.9          127.4
   0.07492              -19.61          15.21          79.43          56.08           3.46         -6.903         -129.3          79.19         -159.1          112.0          127.3
    0.0772              -19.59          15.25          79.32          56.03          3.476         -6.847         -128.4          78.86         -158.3          112.0          127.2
   0.07947              -19.57          15.29          79.18          55.98          3.494         -6.782         -127.3          78.47         -157.4          112.0          127.1
   0.08174              -19.55          15.34          79.02          55.92          3.517         -6.705         -126.1           78.0         -156.3          112.1          127.0
   0.08401              -19.53          15.41          78.83          55.84          3.544         -6.612         -124.6          77.45         -155.0          112.2          126.9
   0.08628               -19.5          15.48           78.6          55.75          3.576           -6.5         -122.8          76.78         -153.4          112.2          126.8
   0.08855              -19.46          15.57          78.31          55.64          3.616         -6.362         -120.6          75.96         -151.4          112.3          126.6
   0.09082              -19.41          15.69          77.96           55.5          3.665         -6.193         -117.8          74.95         -149.0          112.5          126.4
   0.09309              -19.35          15.83          77.52          55.33          3.726         -5.982         -114.4          73.68         -146.0          112.6          126.2
   0.09536              -19.28          16.01          76.97          55.11          3.803         -5.716         -110.2           72.1         -142.2          112.8          125.8
